<svg xmlns="http://www.w3.org/2000/svg" xmlns:xlink="http://www.w3.org/1999/xlink" version="1.1" width="256" height="256" viewBox="0 0 256 256" xml:space="preserve">
<desc>Created with Fabric.js 1.7.22</desc>
<defs>
</defs>
<g transform="translate(128 128) scale(0.72 0.72)" style="">
	<g style="stroke: none; stroke-width: 0; stroke-dasharray: none; stroke-linecap: butt; stroke-linejoin: miter; stroke-miterlimit: 10; fill: none; fill-rule: nonzero; opacity: 1;" transform="translate(-175.05 -175.05000000000004) scale(3.89 3.89)" >
	<path d="M 44.994 0 L 5.969 22.631 v 44.847 L 45.06 90 l 38.971 -22.533 V 22.62 L 44.994 0 z M 29.461 71.022 l -3.5 -2.013 l -7.219 -27.062 v 22.906 l -4.113 -2.363 V 29.5 l 4.113 -2.319 c 0 0.308 3.997 13.225 5.732 18.816 l 0.044 -23.191 l 4.944 -2.713 V 71.022 z M 55.582 42.101 v 5.732 H 38.299 v 28.439 l -4.638 -3.063 V 16.856 l 11.344 -6.782 l 14.339 8.401 l -2.669 4.156 l -11.67 -6.782 l -6.706 3.807 v 22.445 H 55.582 z M 76.714 35.101 l -6.344 -4.332 v 35.615 l -5.119 2.844 V 27.969 l -6.169 -4.025 l 2.538 -3.807 l 15.095 9.538 V 35.101 z" style="stroke: none; stroke-width: 1; stroke-dasharray: none; stroke-linecap: butt; stroke-linejoin: miter; stroke-miterlimit: 10; fill: rgb(255,255,255); fill-rule: nonzero; opacity: 1;" transform=" matrix(1 0 0 1 0 0) " stroke-linecap="round" />
</g>
</g>
</svg>
